<svg width="294" height="294" viewBox="0 0 294 294" fill="none" xmlns="http://www.w3.org/2000/svg">
<path d="M236.074 196.08C236.074 197.443 235.281 198.682 234.043 199.253L148.832 238.522C147.908 238.948 146.844 238.95 145.918 238.527L59.9434 199.258C58.6995 198.689 57.9016 197.448 57.9014 196.08V97.5244C57.9014 96.1426 58.7163 94.8903 59.9795 94.3301L145.953 56.2041L146.124 56.1338C146.987 55.8046 147.948 55.8298 148.796 56.209L234.008 94.335C235.265 94.8977 236.074 96.1468 236.074 97.5244V196.08Z" stroke="white" stroke-width="6.98812" stroke-linejoin="round"/>
<path d="M232.581 97.5243V196.08L147.369 235.349L61.3955 196.08V97.5243L147.369 59.3984L232.581 97.5243Z" fill="white"/>
<path d="M147.369 235.349V136.413M147.369 235.349L232.581 196.08V97.5243M147.369 235.349L61.3955 196.08V97.5243M147.369 136.413L232.581 97.5243M147.369 136.413L61.3955 97.5243M232.581 97.5243L147.369 59.3984L61.3955 97.5243" stroke="#F34E1E" stroke-width="4.99151" stroke-linejoin="round"/>
</svg>
